<svg width="50" height="50" viewBox="0 0 50 50" fill="none" xmlns="http://www.w3.org/2000/svg">
<path d="M18.75 27.0835C17.375 27.771 16.2292 28.7918 15.375 30.0627C14.8958 30.7918 14.8958 31.7085 15.375 32.4377C16.2292 33.7085 17.375 34.7293 18.75 35.4168M31.6875 27.0835C33.0625 27.771 34.2083 28.7918 35.0625 30.0627C35.5417 30.7918 35.5417 31.7085 35.0625 32.4377C34.2083 33.7085 33.0625 34.7293 31.6875 35.4168" stroke="white" stroke-width="3" stroke-linecap="round" stroke-linejoin="round"/>
<path d="M4.64583 16.6873L44.6875 16.6665M18.75 45.8332H31.25C41.6667 45.8332 45.8333 41.6665 45.8333 31.2498V18.7498C45.8333 8.33317 41.6667 4.1665 31.25 4.1665H18.75C8.33333 4.1665 4.16667 8.33317 4.16667 18.7498V31.2498C4.16667 41.6665 8.33333 45.8332 18.75 45.8332Z" stroke="white" stroke-width="3" stroke-linecap="round" stroke-linejoin="round"/>
</svg>
