<svg width="50" height="50" viewBox="0 0 50 50" fill="none" xmlns="http://www.w3.org/2000/svg">
<path d="M29.7083 39.9377L33.3125 36.7293C35.3333 34.9377 35.4167 33.6877 33.8125 31.6668L27.4583 23.6043C26.125 21.9168 23.9375 21.9168 22.6042 23.6043L16.25 31.6668C14.6458 33.6877 14.6458 35.0002 16.75 36.7293L20.3542 39.9377M25.0208 23.1668V28.4377M38.625 21.0418L27.5833 10.0002M11.375 21.0418L22.4167 10.0002M22.3958 46.8752H27.6458C29.6458 46.8752 30.9375 45.4585 30.5625 43.7293L29.7083 39.9585H20.3333L19.4792 43.7293C19.1042 45.3543 20.5208 46.8752 22.3958 46.8752ZM23.2292 10.8127L21.6042 9.18766C20.625 8.2085 20.625 6.62516 21.6042 5.646L23.2292 4.021C24.2083 3.04183 25.7917 3.04183 26.7708 4.021L28.3958 5.646C29.375 6.62516 29.375 8.2085 28.3958 9.18766L26.7708 10.8127C25.7917 11.7918 24.2083 11.7918 23.2292 10.8127ZM40.5208 20.4377H42.8125C44.1875 20.4377 45.3125 21.5627 45.3125 22.9377V25.2293C45.3125 26.6043 44.1875 27.7293 42.8125 27.7293H40.5208C39.1458 27.7293 38.0208 26.6043 38.0208 25.2293V22.9377C38.0208 21.5627 39.1458 20.4377 40.5208 20.4377ZM9.47917 20.4377H7.1875C5.8125 20.4377 4.6875 21.5627 4.6875 22.9377V25.2293C4.6875 26.6043 5.8125 27.7293 7.1875 27.7293H9.47917C10.8542 27.7293 11.9792 26.6043 11.9792 25.2293V22.9377C11.9792 21.5627 10.8542 20.4377 9.47917 20.4377V20.4377Z" stroke="white" stroke-width="3" stroke-linecap="round" stroke-linejoin="round"/>
</svg>
