<svg width="50" height="50" viewBox="0 0 50 50" fill="none" xmlns="http://www.w3.org/2000/svg">
<path d="M45.8333 31.2498C45.8333 39.3123 39.3125 45.8332 31.25 45.8332L33.4375 42.1873M4.16666 18.7498C4.16666 10.6873 10.6875 4.1665 18.75 4.1665L16.5625 7.81234M22.9167 33.6457V39.2707C22.9167 43.9582 21.0417 45.8332 16.3542 45.8332H10.7292C6.04166 45.8332 4.16666 43.9582 4.16666 39.2707V33.6457C4.16666 28.9582 6.04166 27.0832 10.7292 27.0832H16.3542C21.0417 27.0832 22.9167 28.9582 22.9167 33.6457ZM36.4583 22.9165C37.6895 22.9165 38.9086 22.674 40.046 22.2029C41.1834 21.7317 42.2169 21.0412 43.0874 20.1706C43.958 19.3001 44.6486 18.2666 45.1197 17.1292C45.5908 15.9917 45.8333 14.7726 45.8333 13.5415C45.8333 12.3104 45.5908 11.0913 45.1197 9.95385C44.6486 8.81642 43.958 7.78293 43.0874 6.91238C42.2169 6.04183 41.1834 5.35127 40.046 4.88013C38.9086 4.409 37.6895 4.1665 36.4583 4.1665C33.9719 4.1665 31.5874 5.15422 29.8292 6.91238C28.071 8.67053 27.0833 11.0551 27.0833 13.5415C27.0833 16.0279 28.071 18.4125 29.8292 20.1706C31.5874 21.9288 33.9719 22.9165 36.4583 22.9165V22.9165Z" stroke="white" stroke-width="3" stroke-linecap="round" stroke-linejoin="round"/>
</svg>
